<svg width="703" height="354" viewBox="0 0 703 354" fill="none" xmlns="http://www.w3.org/2000/svg">
<g clip-path="url(#clip0_1161_7082)">
<path d="M694.65 167.986C698.483 176.525 700.915 185.653 701.91 194.965C702.868 204.277 702.389 213.7 700.399 222.865C698.446 232.03 695.056 240.826 690.339 248.924C687.244 254.334 683.596 259.414 679.395 264.088C675.231 268.726 670.588 272.922 665.539 276.602C660.454 280.283 655.037 283.375 649.289 285.915C643.577 288.417 637.608 290.331 631.491 291.583C628.617 300.49 624.342 308.919 618.815 316.501C613.324 324.083 606.654 330.745 599.064 336.229C591.473 341.75 583.071 346.02 574.154 348.891C565.236 351.799 555.913 353.234 546.517 353.234C540.289 353.271 534.025 352.608 527.908 351.357C521.828 350.069 515.858 348.118 510.147 345.578C504.435 343.039 499.018 339.873 493.97 336.193C488.958 332.512 484.315 328.279 480.188 323.605C470.976 325.592 461.543 326.071 452.22 325.114C442.897 324.12 433.758 321.691 425.172 317.863C416.623 314.072 408.701 308.919 401.736 302.625C394.772 296.331 388.839 288.97 384.159 280.872C381.027 275.461 378.448 269.756 376.495 263.831C374.542 257.905 373.252 251.795 372.589 245.574C371.925 239.391 371.962 233.134 372.626 226.913C373.289 220.73 374.652 214.62 376.605 208.694C370.341 201.738 365.182 193.824 361.35 185.285C357.554 176.709 355.085 167.618 354.127 158.306C353.132 148.994 353.648 139.571 355.601 130.406C357.554 121.241 360.944 112.445 365.661 104.347C368.756 98.9365 372.404 93.8203 376.568 89.1827C380.732 84.545 385.412 80.3491 390.461 76.6684C395.509 72.9877 400.963 69.8591 406.674 67.3563C412.423 64.8166 418.392 62.9395 424.509 61.6881C427.383 52.744 431.658 44.3521 437.148 36.7699C442.676 29.1877 449.345 22.5257 456.936 17.0047C464.527 11.5205 472.929 7.25093 481.846 4.3432C490.764 1.47227 500.087 5.21841e-06 509.483 0.0368119C515.711 5.21841e-06 521.975 0.625719 528.092 1.91395C534.209 3.20219 540.179 5.11614 545.89 7.6558C551.602 10.2323 557.019 13.3608 562.067 17.0415C567.115 20.759 571.758 24.955 575.885 29.6294C585.061 27.6787 594.494 27.2002 603.817 28.1571C613.14 29.1141 622.242 31.5802 630.828 35.3713C639.377 39.1992 647.299 44.3153 654.264 50.6092C661.228 56.8664 667.161 64.1909 671.841 72.3252C674.973 77.699 677.552 83.404 679.505 89.3667C681.458 95.2926 682.785 101.403 683.411 107.623C684.075 113.843 684.075 120.1 683.374 126.321C682.711 132.541 681.348 138.651 679.395 144.577C685.696 151.533 690.818 159.41 694.65 167.986ZM571.869 325.114C579.902 321.801 587.198 316.906 593.352 310.759C599.506 304.612 604.407 297.325 607.723 289.264C611.04 281.24 612.771 272.627 612.771 263.941V181.862C612.747 181.788 612.722 181.702 612.698 181.604C612.673 181.531 612.636 181.457 612.587 181.384C612.538 181.31 612.477 181.249 612.403 181.199C612.329 181.126 612.256 181.077 612.182 181.052L582.445 163.9V263.058C582.445 264.051 582.297 265.082 582.039 266.039C581.781 267.033 581.413 267.953 580.897 268.836C580.381 269.72 579.791 270.529 579.054 271.229C578.338 271.942 577.533 272.56 576.659 273.069L506.241 313.667C505.651 314.035 504.656 314.55 504.14 314.845C507.051 317.311 510.22 319.482 513.537 321.396C516.89 323.31 520.354 324.93 523.965 326.255C527.576 327.543 531.298 328.537 535.057 329.199C538.852 329.862 542.684 330.193 546.517 330.193C555.213 330.193 563.836 328.463 571.869 325.114ZM404.168 269.388C408.553 276.934 414.339 283.485 421.23 288.785C428.157 294.086 436.006 297.95 444.408 300.196C452.809 302.441 461.579 303.03 470.202 301.889C478.825 300.748 487.116 297.95 494.67 293.607L565.862 252.568L566.047 252.384C566.096 252.335 566.133 252.261 566.157 252.163C566.206 252.089 566.243 252.016 566.268 251.942V217.344L480.336 266.996C479.451 267.511 478.53 267.879 477.572 268.174C476.577 268.431 475.582 268.542 474.55 268.542C473.555 268.542 472.56 268.431 471.565 268.174C470.607 267.879 469.649 267.511 468.765 266.996L398.346 226.361C397.72 225.993 396.799 225.441 396.283 225.11C395.619 228.901 395.288 232.729 395.288 236.557C395.288 240.385 395.656 244.213 396.32 248.004C396.983 251.758 398.015 255.475 399.304 259.082C400.631 262.69 402.252 266.149 404.168 269.462V269.388ZM385.67 115.904C381.322 123.45 378.521 131.768 377.379 140.381C376.237 148.994 376.826 157.717 379.074 166.146C381.322 174.537 385.191 182.377 390.497 189.297C395.804 196.18 402.4 201.958 409.917 206.302L481.073 247.378C481.146 247.402 481.232 247.427 481.331 247.452H481.588C481.687 247.452 481.773 247.427 481.846 247.378C481.92 247.353 481.994 247.317 482.068 247.268L511.915 230.042L425.983 180.5C425.136 179.985 424.325 179.359 423.588 178.66C422.874 177.944 422.255 177.14 421.745 176.267C421.266 175.384 420.861 174.464 420.603 173.47C420.345 172.513 420.198 171.519 420.235 170.489V86.9007C416.623 88.2257 413.123 89.8452 409.806 91.7591C406.49 93.7099 403.358 95.9183 400.41 98.3844C397.499 100.85 394.772 103.574 392.303 106.519C389.834 109.426 387.66 112.592 385.744 115.904H385.67ZM630.091 172.734C630.975 173.249 631.786 173.838 632.523 174.574C633.223 175.274 633.849 176.083 634.365 176.967C634.844 177.85 635.249 178.807 635.507 179.764C635.728 180.758 635.876 181.752 635.839 182.782V266.37C647.668 262.027 657.985 254.408 665.613 244.397C673.278 234.385 677.884 222.423 678.953 209.909C680.021 197.394 677.515 184.807 671.693 173.654C665.871 162.502 656.99 153.226 646.083 146.969L574.927 105.893C574.854 105.868 574.768 105.844 574.669 105.819H574.411C574.338 105.844 574.252 105.868 574.154 105.893C574.08 105.917 574.006 105.954 573.932 106.003L544.232 123.155L630.164 172.734H630.091ZM659.754 128.198H659.717V128.235L659.754 128.198ZM659.717 128.161C661.855 115.794 660.417 103.059 655.553 91.4647C650.726 79.8706 642.656 69.896 632.338 62.6818C622.021 55.5045 609.86 51.3822 597.295 50.8301C584.692 50.3148 572.237 53.3697 561.33 59.6269L490.174 100.666C490.101 100.715 490.039 100.777 489.99 100.85L489.843 101.071C489.818 101.145 489.794 101.231 489.769 101.329C489.744 101.403 489.732 101.488 489.732 101.587V135.89L575.664 86.3117C576.549 85.7965 577.507 85.4284 578.465 85.1339C579.46 84.8763 580.455 84.7659 581.45 84.7659C582.481 84.7659 583.476 84.8763 584.471 85.1339C585.429 85.4284 586.351 85.7965 587.235 86.3117L657.654 126.946C658.28 127.314 659.201 127.83 659.717 128.161ZM473.519 90.1765C473.519 89.1827 473.666 88.1889 473.924 87.1951C474.182 86.2381 474.55 85.2812 475.066 84.3978C475.582 83.5512 476.172 82.7415 476.909 82.0054C477.609 81.306 478.419 80.6803 479.304 80.2018L549.723 39.604C550.386 39.1992 551.307 38.6839 551.823 38.4262C542.168 30.3655 530.377 25.2126 517.885 23.6299C505.393 22.0104 492.717 23.998 481.331 29.335C469.907 34.6719 460.253 43.1743 453.509 53.7746C446.766 64.4118 443.192 76.7052 443.192 89.2931V171.372C443.216 171.47 443.241 171.556 443.265 171.63C443.29 171.703 443.327 171.777 443.376 171.851C443.425 171.924 443.486 171.998 443.56 172.071C443.609 172.12 443.683 172.17 443.781 172.219L473.519 189.371V90.1765ZM489.658 198.646L527.945 220.73L566.231 198.646V154.515L527.982 132.431L489.695 154.515L489.658 198.646Z" fill="white"/>
</g>
<path fill-rule="evenodd" clip-rule="evenodd" d="M294.841 307.451C330.558 275.153 353 228.447 353 176.5C353 124.402 330.428 77.5758 294.529 45.268C278.348 143.413 197.799 219.857 97.6855 229.797V334.469C121.408 346.328 148.175 353 176.5 353C203.902 353 229.846 346.756 252.985 335.612C251.659 297.502 238.327 262.443 216.653 234.103C229.202 226.123 240.895 216.919 251.564 206.657C273.739 235.484 288.993 269.911 294.841 307.451ZM53.283 302.872C20.4113 270.816 0 226.042 0 176.5C0 126.958 20.4113 82.1843 53.283 50.1281V185.116V229.797V302.872ZM97.6855 18.531V185.116C182.554 174.534 248.827 104.074 252.896 17.3452C229.779 6.22847 203.867 0 176.5 0C148.175 0 121.408 6.67234 97.6855 18.531Z" fill="white"/>
<defs>
<clipPath id="clip0_1161_7082">
<rect width="350" height="353.271" fill="white" transform="translate(353)"/>
</clipPath>
</defs>
</svg>
